<?xml version="1.0" encoding="UTF-8"?>
<svg id="Layer_1" data-name="Layer 1" xmlns="http://www.w3.org/2000/svg" xmlns:xlink="http://www.w3.org/1999/xlink" viewBox="0 0 2345 735">
  <defs>
    <style>
      .cls-1 {
        fill: url(#linear-gradient);
      }

      .cls-2, .cls-3 {
        fill: #fff;
      }

      .cls-4 {
        fill: url(#linear-gradient-8);
      }

      .cls-5 {
        fill: url(#linear-gradient-9);
      }

      .cls-6 {
        fill: url(#linear-gradient-3);
      }

      .cls-7 {
        fill: url(#linear-gradient-4);
      }

      .cls-8 {
        fill: url(#linear-gradient-2);
      }

      .cls-9 {
        fill: url(#linear-gradient-6);
      }

      .cls-10 {
        fill: url(#linear-gradient-7);
      }

      .cls-11 {
        fill: url(#linear-gradient-5);
      }

      .cls-12 {
        fill: url(#linear-gradient-41);
      }

      .cls-13 {
        fill: url(#linear-gradient-40);
      }

      .cls-14 {
        fill: url(#linear-gradient-43);
      }

      .cls-15 {
        fill: url(#linear-gradient-42);
      }

      .cls-16 {
        fill: url(#linear-gradient-45);
      }

      .cls-17 {
        fill: url(#linear-gradient-46);
      }

      .cls-18 {
        fill: url(#linear-gradient-44);
      }

      .cls-19 {
        fill: url(#linear-gradient-47);
      }

      .cls-20 {
        fill: url(#linear-gradient-48);
      }

      .cls-21 {
        fill: url(#linear-gradient-14);
      }

      .cls-22 {
        fill: url(#linear-gradient-18);
      }

      .cls-23 {
        fill: url(#linear-gradient-22);
      }

      .cls-24 {
        fill: url(#linear-gradient-20);
      }

      .cls-25 {
        fill: url(#linear-gradient-21);
      }

      .cls-26 {
        fill: url(#linear-gradient-23);
      }

      .cls-27 {
        fill: url(#linear-gradient-15);
      }

      .cls-28 {
        fill: url(#linear-gradient-19);
      }

      .cls-29 {
        fill: url(#linear-gradient-16);
      }

      .cls-30 {
        fill: url(#linear-gradient-17);
      }

      .cls-31 {
        fill: url(#linear-gradient-13);
      }

      .cls-32 {
        fill: url(#linear-gradient-12);
      }

      .cls-33 {
        fill: url(#linear-gradient-10);
      }

      .cls-34 {
        fill: url(#linear-gradient-11);
      }

      .cls-35 {
        fill: url(#linear-gradient-27);
      }

      .cls-36 {
        fill: url(#linear-gradient-24);
      }

      .cls-37 {
        fill: url(#linear-gradient-26);
      }

      .cls-38 {
        fill: url(#linear-gradient-38);
      }

      .cls-39 {
        fill: url(#linear-gradient-35);
      }

      .cls-40 {
        fill: url(#linear-gradient-37);
      }

      .cls-41 {
        fill: url(#linear-gradient-34);
      }

      .cls-42 {
        fill: url(#linear-gradient-39);
      }

      .cls-43 {
        fill: url(#linear-gradient-36);
      }

      .cls-44 {
        fill: url(#linear-gradient-25);
      }

      .cls-45 {
        fill: url(#linear-gradient-28);
      }

      .cls-46 {
        fill: url(#linear-gradient-29);
      }

      .cls-47 {
        fill: url(#linear-gradient-33);
      }

      .cls-48 {
        fill: url(#linear-gradient-30);
      }

      .cls-49 {
        fill: url(#linear-gradient-32);
      }

      .cls-50 {
        fill: url(#linear-gradient-31);
      }

      .cls-3 {
        stroke: #fff;
        stroke-linecap: round;
        stroke-linejoin: round;
        stroke-width: 3px;
      }
    </style>
    <linearGradient id="linear-gradient" x1="618.62" y1="367.85" x2="2195.33" y2="367.85" gradientUnits="userSpaceOnUse">
      <stop offset="0" stop-color="#0048ff"/>
      <stop offset="1" stop-color="#55de60"/>
    </linearGradient>
    <linearGradient id="linear-gradient-2" y1="369.07" y2="369.07" xlink:href="#linear-gradient"/>
    <linearGradient id="linear-gradient-3" y1="369.05" y2="369.05" xlink:href="#linear-gradient"/>
    <linearGradient id="linear-gradient-4" y1="369.05" y2="369.05" xlink:href="#linear-gradient"/>
    <linearGradient id="linear-gradient-5" y1="369.05" y2="369.05" xlink:href="#linear-gradient"/>
    <linearGradient id="linear-gradient-6" y1="369.05" y2="369.05" xlink:href="#linear-gradient"/>
    <linearGradient id="linear-gradient-7" y1="369.05" y2="369.05" xlink:href="#linear-gradient"/>
    <linearGradient id="linear-gradient-8" y1="369.04" y2="369.04" xlink:href="#linear-gradient"/>
    <linearGradient id="linear-gradient-9" y1="369.04" y2="369.04" xlink:href="#linear-gradient"/>
    <linearGradient id="linear-gradient-10" x1="143.07" y1="325.82" x2="607.94" y2="325.82" xlink:href="#linear-gradient"/>
    <linearGradient id="linear-gradient-11" x1="143.07" y1="325.67" x2="607.94" y2="325.67" xlink:href="#linear-gradient"/>
    <linearGradient id="linear-gradient-12" x1="143.07" y1="455.28" x2="607.94" y2="455.28" xlink:href="#linear-gradient"/>
    <linearGradient id="linear-gradient-13" x1="186.62" y1="535.62" x2="2301.14" y2="535.62" xlink:href="#linear-gradient"/>
    <linearGradient id="linear-gradient-14" x1="186.62" y1="535.63" x2="2301.14" y2="535.63" xlink:href="#linear-gradient"/>
    <linearGradient id="linear-gradient-15" x1="186.62" y1="535.62" x2="2301.14" y2="535.62" xlink:href="#linear-gradient"/>
    <linearGradient id="linear-gradient-16" x1="186.62" y1="535.62" x2="2301.14" y2="535.62" xlink:href="#linear-gradient"/>
    <linearGradient id="linear-gradient-17" x1="186.62" y1="535.62" x2="2301.14" y2="535.62" xlink:href="#linear-gradient"/>
    <linearGradient id="linear-gradient-18" x1="186.62" y1="535.62" x2="2301.14" y2="535.62" xlink:href="#linear-gradient"/>
    <linearGradient id="linear-gradient-19" x1="186.62" y1="535.62" x2="2301.14" y2="535.62" xlink:href="#linear-gradient"/>
    <linearGradient id="linear-gradient-20" x1="186.62" y1="535.62" x2="2301.14" y2="535.62" xlink:href="#linear-gradient"/>
    <linearGradient id="linear-gradient-21" x1="186.62" y1="535.63" x2="2301.14" y2="535.63" xlink:href="#linear-gradient"/>
    <linearGradient id="linear-gradient-22" x1="186.62" y1="535.62" x2="2301.14" y2="535.62" xlink:href="#linear-gradient"/>
    <linearGradient id="linear-gradient-23" x1="186.62" y1="535.62" x2="2301.14" y2="535.62" xlink:href="#linear-gradient"/>
    <linearGradient id="linear-gradient-24" x1="186.62" y1="535.62" x2="2301.14" y2="535.62" xlink:href="#linear-gradient"/>
    <linearGradient id="linear-gradient-25" x1="186.62" y1="535.88" x2="2301.14" y2="535.88" xlink:href="#linear-gradient"/>
    <linearGradient id="linear-gradient-26" x1="186.62" y1="535.62" x2="2301.14" y2="535.62" xlink:href="#linear-gradient"/>
    <linearGradient id="linear-gradient-27" x1="186.62" y1="535.62" x2="2301.14" y2="535.62" xlink:href="#linear-gradient"/>
    <linearGradient id="linear-gradient-28" x1="186.62" y1="535.63" x2="2301.14" y2="535.63" xlink:href="#linear-gradient"/>
    <linearGradient id="linear-gradient-29" x1="186.62" y1="535.62" x2="2301.14" y2="535.62" xlink:href="#linear-gradient"/>
    <linearGradient id="linear-gradient-30" x1="186.62" y1="535.62" x2="2301.14" y2="535.62" xlink:href="#linear-gradient"/>
    <linearGradient id="linear-gradient-31" x1="186.62" y1="535.62" x2="2301.14" y2="535.62" xlink:href="#linear-gradient"/>
    <linearGradient id="linear-gradient-32" x1="186.62" y1="535.62" x2="2301.14" y2="535.62" xlink:href="#linear-gradient"/>
    <linearGradient id="linear-gradient-33" x1="186.62" y1="559.07" x2="2301.14" y2="559.07" xlink:href="#linear-gradient"/>
    <linearGradient id="linear-gradient-34" x1="186.62" y1="535.62" x2="2301.14" y2="535.62" xlink:href="#linear-gradient"/>
    <linearGradient id="linear-gradient-35" x1="186.62" y1="535.88" x2="2301.14" y2="535.88" xlink:href="#linear-gradient"/>
    <linearGradient id="linear-gradient-36" x1="186.62" y1="535.62" x2="2301.14" y2="535.62" xlink:href="#linear-gradient"/>
    <linearGradient id="linear-gradient-37" x1="186.62" y1="535.62" x2="2301.14" y2="535.62" xlink:href="#linear-gradient"/>
    <linearGradient id="linear-gradient-38" x1="186.62" y1="535.62" x2="2301.14" y2="535.62" xlink:href="#linear-gradient"/>
    <linearGradient id="linear-gradient-39" x1="186.62" y1="535.62" x2="2301.14" y2="535.62" xlink:href="#linear-gradient"/>
    <linearGradient id="linear-gradient-40" x1="186.62" y1="535.62" x2="2301.14" y2="535.62" xlink:href="#linear-gradient"/>
    <linearGradient id="linear-gradient-41" x1="186.62" y1="535.62" x2="2301.14" y2="535.62" xlink:href="#linear-gradient"/>
    <linearGradient id="linear-gradient-42" x1="186.62" y1="535.62" x2="2301.14" y2="535.62" xlink:href="#linear-gradient"/>
    <linearGradient id="linear-gradient-43" x1="186.62" y1="535.62" x2="2301.14" y2="535.62" xlink:href="#linear-gradient"/>
    <linearGradient id="linear-gradient-44" x1="186.62" y1="535.62" x2="2301.14" y2="535.62" xlink:href="#linear-gradient"/>
    <linearGradient id="linear-gradient-45" x1="186.62" y1="535.88" x2="2301.14" y2="535.88" xlink:href="#linear-gradient"/>
    <linearGradient id="linear-gradient-46" x1="186.62" y1="535.62" x2="2301.14" y2="535.62" xlink:href="#linear-gradient"/>
    <linearGradient id="linear-gradient-47" x1="186.62" y1="535.62" x2="2301.14" y2="535.62" xlink:href="#linear-gradient"/>
    <linearGradient id="linear-gradient-48" x1="186.62" y1="535.62" x2="2301.14" y2="535.62" xlink:href="#linear-gradient"/>
  </defs>
  <g>
    <path class="cls-1" d="M594.14,347.01v41.68h126.04v-41.68h-126.04Z"/>
    <g>
      <path class="cls-8" d="M1014.44,252.99l-44.06,171.69-48.62-171.69h-39.64l-48.42,172.13-44.66-172.13h-47.87l61.47,232.16h55.18l43.67-154.04,43.98,154.04h52.07l61-232.16h-44.09Z"/>
      <path class="cls-6" d="M1291.99,397.56c13.49-6.19,24.32-15.41,32.5-27.69,8.18-12.27,12.27-25.59,12.27-39.97,0-21.22-7.52-39.35-22.55-54.39-15.04-15.03-33.28-22.55-54.72-22.55h-92.86v232.16h45.77v-80.59h34.66l46.93,80.59h49.42l-51.4-87.56Zm-10.28-43.28c-6.19,6.74-13.6,10.12-22.22,10.12h-47.09v-68.65h47.09c8.62,0,16.03,3.31,22.22,9.95,6.19,6.63,9.28,14.71,9.28,24.21s-3.1,17.64-9.28,24.38Z"/>
      <path class="cls-7" d="M1416.03,441.35v-52.07h87.89v-43.11h-87.89v-49.42h96.18v-43.78h-141.95v232.16h143.61v-43.78h-97.84Z"/>
      <path class="cls-11" d="M1591.81,441.35V252.97h-45.77v232.16h134.32v-43.78h-88.55Z"/>
      <path class="cls-9" d="M1087.1,252.9v232.29h45.79V252.9h-45.79Z"/>
      <path class="cls-10" d="M1752,441.35v-52.07h87.89v-43.11h-87.89v-49.42h96.18v-43.78h-141.95v232.16h143.61v-43.78h-97.84Z"/>
      <path class="cls-4" d="M2043.02,401.38c-1.66-5.64-3.65-10.44-5.97-14.43-2.32-3.98-5.7-7.85-10.12-11.61-4.43-3.76-8.35-6.74-11.78-8.95-3.43-2.21-8.29-4.59-14.59-7.13-6.3-2.54-11.28-4.42-14.93-5.64-3.65-1.21-9.01-2.93-16.09-5.14-17.25-5.31-28.91-10.22-34.99-14.76-6.08-4.53-9.12-10.45-9.12-17.74,0-6.85,2.7-12.44,8.12-16.75,5.41-4.31,12.88-6.47,22.39-6.47,20.34,0,35.15,9.95,44.44,29.85l38.47-22.22c-7.96-16.36-19.07-29.13-33.33-38.3-14.26-9.17-30.79-13.77-49.58-13.77-21.01,0-38.97,6.25-53.89,18.74-14.92,12.49-22.39,29.24-22.39,50.24,0,10.62,1.88,19.9,5.64,27.86,3.76,7.96,9.23,14.54,16.42,19.73,7.18,5.2,14.37,9.34,21.56,12.44,7.18,3.1,15.97,6.19,26.37,9.28,18.79,5.31,31.84,10.23,39.14,14.76,7.3,4.54,10.94,10.89,10.94,19.07,0,7.08-2.98,12.93-8.95,17.58-5.97,4.64-15.37,6.97-28.19,6.97-26.53,0-44.33-11.83-53.4-35.49l-39.13,22.88c6.41,17.69,17.46,31.68,33.16,41.96,15.7,10.28,35.04,15.42,58.04,15.42,24.98,0,45.27-6.3,60.86-18.9,15.59-12.6,23.38-29.63,23.38-51.08,0-6.63-.83-12.77-2.49-18.41Z"/>
      <path class="cls-5" d="M2229.41,401.38c-1.66-5.64-3.65-10.44-5.97-14.43-2.32-3.98-5.69-7.85-10.12-11.61-4.43-3.76-8.35-6.74-11.78-8.95-3.43-2.21-8.29-4.59-14.59-7.13-6.3-2.54-11.28-4.42-14.93-5.64-3.65-1.21-9.01-2.93-16.09-5.14-17.25-5.31-28.91-10.22-34.99-14.76-6.08-4.53-9.12-10.45-9.12-17.74,0-6.85,2.71-12.44,8.13-16.75,5.41-4.31,12.88-6.47,22.38-6.47,20.34,0,35.16,9.95,44.44,29.85l38.47-22.22c-7.96-16.36-19.07-29.13-33.33-38.3-14.26-9.17-30.79-13.77-49.58-13.77-21.01,0-38.97,6.25-53.89,18.74-14.92,12.49-22.38,29.24-22.38,50.24,0,10.62,1.88,19.9,5.64,27.86,3.76,7.96,9.23,14.54,16.41,19.73,7.19,5.2,14.37,9.34,21.56,12.44,7.18,3.1,15.97,6.19,26.37,9.28,18.79,5.31,31.84,10.23,39.14,14.76,7.3,4.54,10.94,10.89,10.94,19.07,0,7.08-2.98,12.93-8.95,17.58-5.97,4.64-15.37,6.97-28.19,6.97-26.53,0-44.33-11.83-53.39-35.49l-39.14,22.88c6.41,17.69,17.47,31.68,33.17,41.96,15.7,10.28,35.04,15.42,58.04,15.42,24.99,0,45.27-6.3,60.86-18.9,15.59-12.6,23.38-29.63,23.38-51.08,0-6.63-.83-12.77-2.49-18.41Z"/>
    </g>
  </g>
  <path class="cls-33" d="M506.76,485.67h-73.91l-.12-.12-22.63-22.64-34.78-34.77-.04-.05-1.25-1.24-.17-.17-19.39-19.39-78.28,78.27-.12,.12h-73.89l115.34-115.34-1.52-1.52L119.72,172.54l-.29-.24-6.33-6.33h73.96l167.4,167.41,68.15-68.15,28.52-28.51,5.21-5.21,36.94,36.94s-.16,.05-.44,.13l.16,.16-33.44,33.43-60.28,60.28-7.88,7.87,19.15,19.14,.41,.42,1.25,1.25,94.42,94.41,.12,.12Z"/>
  <g>
    <polygon class="cls-34" points="620.1 485.55 504.52 369.95 599.51 274.97 544.14 219.6 543.58 219.05 490.2 165.67 327.48 165.67 327.48 288.68 354.46 315.65 379.06 291.05 379.06 219.89 469.96 219.89 506.91 256.84 526.45 276.38 469.22 333.63 457.53 321.94 421.06 358.41 434.01 371.36 470.02 404.97 550.72 485.67 620.22 485.67 620.1 485.55"/>
    <polygon class="cls-32" points="327.48 451.98 327.48 485.55 379.06 485.55 379.06 449.6 354.46 425.01 327.48 451.98"/>
  </g>
  <g>
    <rect class="cls-3" x="1555.02" y="273.62" width="17.27" height="1.45"/>
    <rect class="cls-3" x="1555.02" y="263.42" width="22.82" height="1.45"/>
    <rect class="cls-3" x="1555.02" y="293.98" width="17.27" height="1.45"/>
    <rect class="cls-3" x="1555.02" y="283.8" width="22.82" height="1.45"/>
    <rect class="cls-3" x="1555.02" y="313.97" width="17.27" height="1.45"/>
    <rect class="cls-3" x="1555.02" y="303.77" width="22.82" height="1.45"/>
    <rect class="cls-3" x="1555.02" y="334.33" width="17.27" height="1.45"/>
    <rect class="cls-3" x="1555.02" y="324.15" width="22.82" height="1.45"/>
    <rect class="cls-3" x="1555.02" y="354.69" width="17.27" height="1.45"/>
    <rect class="cls-3" x="1555.02" y="344.48" width="22.82" height="1.45"/>
    <rect class="cls-3" x="1555.02" y="375.05" width="17.27" height="1.45"/>
    <rect class="cls-3" x="1555.02" y="364.87" width="22.82" height="1.45"/>
    <rect class="cls-3" x="1555.02" y="395.04" width="17.27" height="1.45"/>
    <rect class="cls-3" x="1555.02" y="384.83" width="22.82" height="1.45"/>
    <rect class="cls-3" x="1555.02" y="415.4" width="17.27" height="1.45"/>
    <rect class="cls-3" x="1555.02" y="405.22" width="22.82" height="1.45"/>
    <rect class="cls-3" x="1555.02" y="435.75" width="17.27" height="1.45"/>
    <rect class="cls-3" x="1555.02" y="425.55" width="22.82" height="1.45"/>
  </g>
  <g>
    <rect class="cls-3" x="1601.38" y="459.81" width="1.45" height="17.27"/>
    <rect class="cls-3" x="1591.17" y="454.26" width="1.45" height="22.82"/>
    <rect class="cls-3" x="1621.74" y="459.81" width="1.45" height="17.27"/>
    <rect class="cls-3" x="1611.56" y="454.26" width="1.45" height="22.82"/>
    <rect class="cls-3" x="1641.73" y="459.81" width="1.45" height="17.27"/>
    <rect class="cls-3" x="1631.53" y="454.26" width="1.45" height="22.82"/>
    <rect class="cls-3" x="1662.09" y="459.81" width="1.45" height="17.27"/>
    <rect class="cls-3" x="1651.91" y="454.26" width="1.45" height="22.82"/>
    <rect class="cls-3" x="1672.24" y="454.26" width="1.45" height="22.82"/>
  </g>
  <rect class="cls-2" x="1555.02" y="454.67" width="22" height="22"/>
  <g>
    <path class="cls-31" d="M214.1,559.62h-11.2v-48h11.2v48Z"/>
    <path class="cls-21" d="M261.98,540.28c.41,.9,.8,1.82,1.17,2.77,.37-.97,.77-1.91,1.19-2.82,.42-.91,.85-1.8,1.28-2.65l12.32-24.27c.22-.42,.45-.74,.68-.97s.49-.4,.77-.51c.29-.11,.61-.17,.97-.17h9.77v47.96h-9.82v-27.61c0-1.34,.07-2.79,.2-4.35l-12.72,24.67c-.4,.77-.93,1.35-1.6,1.75-.67,.4-1.43,.59-2.29,.59h-1.52c-.86,0-1.62-.2-2.29-.59-.67-.4-1.2-.98-1.6-1.75l-12.78-24.71c.09,.77,.15,1.53,.2,2.29s.07,1.45,.07,2.09v27.61h-9.82v-47.96h9.77c.36,0,.69,.06,.97,.17,.29,.11,.54,.28,.77,.51s.46,.55,.68,.97l12.35,24.37c.44,.84,.86,1.7,1.27,2.61Z"/>
    <path class="cls-27" d="M322.35,543.57v16.04h-11.14v-48h16.93c3.38,0,6.29,.4,8.71,1.2,2.43,.8,4.43,1.91,6,3.31,1.57,1.41,2.73,3.06,3.47,4.97,.75,1.91,1.12,3.98,1.12,6.19,0,2.39-.38,4.59-1.15,6.59-.77,2-1.94,3.71-3.52,5.14-1.58,1.43-3.59,2.54-6.01,3.34-2.43,.8-5.3,1.2-8.61,1.2h-5.8Zm0-8.4h5.8c2.9,0,4.98-.69,6.26-2.08,1.27-1.38,1.91-3.32,1.91-5.8,0-1.1-.16-2.1-.49-3-.33-.9-.83-1.67-1.5-2.32-.67-.65-1.52-1.15-2.54-1.5-1.02-.35-2.24-.53-3.64-.53h-5.8v15.22Z"/>
    <path class="cls-29" d="M377.56,541.86v17.76h-11.14v-48h15.62c3.47,0,6.43,.36,8.88,1.07,2.45,.71,4.45,1.71,6,2.98,1.55,1.27,2.67,2.78,3.38,4.51,.7,1.73,1.05,3.62,1.05,5.67,0,1.56-.21,3.03-.63,4.41-.42,1.38-1.04,2.66-1.86,3.84-.82,1.18-1.83,2.22-3.03,3.15-1.2,.92-2.58,1.68-4.13,2.27,.75,.37,1.44,.83,2.09,1.38,.65,.55,1.21,1.22,1.7,2.01l10.21,16.7h-10.08c-1.87,0-3.21-.7-4.02-2.11l-7.97-13.93c-.35-.61-.76-1.05-1.24-1.32-.47-.26-1.14-.4-1.99-.4h-2.83Zm0-7.68h4.48c1.52,0,2.81-.19,3.87-.58,1.06-.38,1.94-.92,2.62-1.6,.68-.68,1.17-1.48,1.48-2.39,.31-.91,.46-1.89,.46-2.95,0-2.11-.69-3.76-2.06-4.94-1.37-1.19-3.5-1.78-6.37-1.78h-4.48v14.23Z"/>
    <path class="cls-30" d="M469.14,535.6c0,3.47-.6,6.7-1.8,9.69-1.2,2.99-2.88,5.58-5.06,7.79-2.17,2.21-4.79,3.94-7.86,5.19-3.06,1.25-6.46,1.88-10.2,1.88s-7.14-.63-10.21-1.88c-3.07-1.25-5.7-2.98-7.89-5.19-2.19-2.21-3.88-4.8-5.07-7.79-1.2-2.99-1.8-6.21-1.8-9.69s.6-6.7,1.8-9.69c1.2-2.99,2.89-5.58,5.07-7.77,2.18-2.2,4.81-3.92,7.89-5.17,3.07-1.25,6.48-1.88,10.21-1.88s7.13,.63,10.2,1.89c3.06,1.26,5.68,2.99,7.86,5.19,2.17,2.2,3.86,4.79,5.06,7.77,1.2,2.99,1.8,6.2,1.8,9.65Zm-11.4,0c0-2.37-.31-4.51-.92-6.41-.61-1.9-1.5-3.51-2.65-4.83-1.15-1.32-2.56-2.33-4.23-3.03-1.67-.7-3.57-1.05-5.7-1.05s-4.07,.35-5.75,1.05c-1.68,.7-3.1,1.71-4.25,3.03-1.15,1.32-2.04,2.93-2.65,4.83-.61,1.9-.92,4.04-.92,6.41s.31,4.54,.92,6.44c.61,1.9,1.5,3.51,2.65,4.83,1.15,1.32,2.57,2.32,4.25,3.01,1.68,.69,3.6,1.04,5.75,1.04s4.03-.35,5.7-1.04c1.67-.69,3.08-1.7,4.23-3.01,1.15-1.32,2.04-2.93,2.65-4.83,.61-1.9,.92-4.05,.92-6.44Z"/>
    <path class="cls-22" d="M481.73,511.62h8.96c.97,0,1.76,.22,2.37,.66,.61,.44,1.05,1.02,1.32,1.75l9.29,25.7c.42,1.12,.84,2.34,1.27,3.66s.83,2.7,1.2,4.15c.31-1.45,.66-2.83,1.07-4.15,.41-1.32,.81-2.54,1.2-3.66l9.22-25.7c.22-.61,.65-1.17,1.29-1.66,.64-.49,1.42-.74,2.34-.74h9.03l-19.24,48h-10.08l-19.24-48Z"/>
    <path class="cls-28" d="M578.31,511.62v8.57h-19.7v11.2h15.09v8.24h-15.09v11.43h19.7v8.56h-30.9v-48h30.9Z"/>
    <path class="cls-24" d="M641.37,535.6c0,3.47-.6,6.67-1.8,9.6-1.2,2.93-2.88,5.47-5.06,7.61s-4.79,3.81-7.86,5.01c-3.06,1.2-6.46,1.8-10.2,1.8h-18.65v-48h18.65c3.73,0,7.13,.6,10.2,1.81,3.06,1.21,5.68,2.88,7.86,5.01s3.86,4.66,5.06,7.59c1.2,2.93,1.8,6.12,1.8,9.57Zm-11.4,0c0-2.37-.31-4.51-.92-6.42-.61-1.91-1.5-3.53-2.65-4.86-1.15-1.33-2.56-2.35-4.23-3.06-1.67-.71-3.57-1.07-5.7-1.07h-7.44v30.87h7.44c2.13,0,4.03-.36,5.7-1.07,1.67-.71,3.08-1.73,4.23-3.06,1.15-1.33,2.04-2.95,2.65-4.86,.61-1.91,.92-4.06,.92-6.46Z"/>
    <path class="cls-25" d="M711.58,540.28c.41,.9,.8,1.82,1.17,2.77,.37-.97,.77-1.91,1.19-2.82,.42-.91,.85-1.8,1.28-2.65l12.32-24.27c.22-.42,.45-.74,.68-.97s.49-.4,.77-.51c.29-.11,.61-.17,.97-.17h9.77v47.96h-9.82v-27.61c0-1.34,.07-2.79,.2-4.35l-12.72,24.67c-.4,.77-.93,1.35-1.6,1.75-.67,.4-1.43,.59-2.29,.59h-1.52c-.86,0-1.62-.2-2.29-.59-.67-.4-1.2-.98-1.6-1.75l-12.78-24.71c.09,.77,.15,1.53,.2,2.29s.07,1.45,.07,2.09v27.61h-9.82v-47.96h9.77c.36,0,.69,.06,.97,.17,.29,.11,.54,.28,.77,.51s.46,.55,.68,.97l12.35,24.37c.44,.84,.86,1.7,1.27,2.61Z"/>
    <path class="cls-23" d="M791.72,511.62v8.57h-19.7v11.2h15.09v8.24h-15.09v11.43h19.7v8.56h-30.9v-48h30.9Z"/>
    <path class="cls-26" d="M855.89,559.62h-8.63c-.97,0-1.76-.23-2.39-.68-.63-.45-1.06-1.03-1.3-1.73l-2.83-8.37h-18.25l-2.83,8.37c-.22,.62-.65,1.17-1.29,1.66-.64,.49-1.42,.74-2.34,.74h-8.7l18.58-48h11.4l18.58,48Zm-30.83-18.35h13.11l-4.41-13.14c-.29-.83-.62-1.82-1-2.95s-.76-2.36-1.14-3.67c-.35,1.34-.71,2.58-1.09,3.72-.37,1.14-.73,2.13-1.05,2.96l-4.41,13.08Z"/>
    <path class="cls-36" d="M899.7,521.37c-.33,.53-.67,.92-1.04,1.19-.36,.26-.83,.4-1.4,.4-.5,0-1.05-.16-1.63-.48s-1.24-.68-1.98-1.07c-.74-.4-1.58-.75-2.52-1.07s-2.02-.48-3.23-.48c-2.09,0-3.64,.44-4.66,1.33-1.02,.89-1.53,2.09-1.53,3.61,0,.97,.31,1.77,.92,2.4,.61,.64,1.42,1.19,2.42,1.65,1,.46,2.14,.88,3.43,1.27,1.28,.38,2.6,.81,3.94,1.28,1.34,.47,2.65,1.03,3.94,1.66,1.28,.64,2.43,1.45,3.43,2.44,1,.99,1.81,2.19,2.42,3.61,.61,1.42,.92,3.12,.92,5.12,0,2.22-.39,4.29-1.15,6.23-.77,1.93-1.88,3.62-3.34,5.06-1.46,1.44-3.26,2.57-5.4,3.39-2.14,.82-4.57,1.24-7.3,1.24-1.49,0-3.01-.15-4.56-.46-1.55-.31-3.05-.74-4.5-1.3-1.45-.56-2.81-1.22-4.09-1.99-1.27-.77-2.38-1.63-3.33-2.57l3.29-5.21c.24-.4,.58-.71,1.02-.96,.44-.24,.91-.36,1.42-.36,.66,0,1.32,.21,1.99,.63,.67,.42,1.43,.88,2.27,1.38,.85,.51,1.82,.97,2.92,1.38,1.1,.42,2.39,.63,3.89,.63,2.02,0,3.59-.44,4.71-1.33,1.12-.89,1.68-2.3,1.68-4.23,0-1.12-.31-2.03-.92-2.73-.61-.7-1.42-1.28-2.42-1.75-1-.46-2.14-.87-3.41-1.22s-2.58-.74-3.92-1.17c-1.34-.43-2.65-.96-3.92-1.58-1.27-.63-2.41-1.45-3.41-2.47-1-1.02-1.81-2.29-2.42-3.82-.61-1.53-.92-3.41-.92-5.65,0-1.8,.36-3.56,1.09-5.27,.73-1.71,1.79-3.24,3.2-4.58,1.41-1.34,3.13-2.41,5.17-3.21,2.04-.8,4.38-1.2,7.02-1.2,1.47,0,2.9,.12,4.3,.35,1.39,.23,2.72,.57,3.97,1.02,1.25,.45,2.42,.99,3.51,1.61,1.09,.63,2.06,1.33,2.91,2.13l-2.77,5.17Z"/>
    <path class="cls-44" d="M941.8,550.82c1.49,0,2.83-.25,4-.74,1.17-.49,2.17-1.2,2.98-2.13,.81-.92,1.43-2.05,1.86-3.38,.43-1.33,.64-2.84,.64-4.53v-28.43h11.13v28.43c0,2.94-.48,5.64-1.43,8.1-.95,2.46-2.32,4.58-4.1,6.36-1.78,1.78-3.94,3.16-6.49,4.15-2.55,.99-5.41,1.48-8.6,1.48s-6.08-.49-8.63-1.48c-2.55-.99-4.71-2.37-6.49-4.15-1.78-1.78-3.14-3.9-4.08-6.36-.95-2.46-1.42-5.16-1.42-8.1v-28.43h11.13v28.4c0,1.69,.21,3.2,.64,4.53,.43,1.33,1.05,2.46,1.86,3.39,.81,.93,1.81,1.65,2.98,2.14,1.17,.49,2.51,.74,4,.74Z"/>
    <path class="cls-37" d="M993.98,541.86v17.76h-11.14v-48h15.62c3.47,0,6.43,.36,8.88,1.07,2.45,.71,4.45,1.71,6,2.98,1.55,1.27,2.67,2.78,3.38,4.51,.7,1.73,1.05,3.62,1.05,5.67,0,1.56-.21,3.03-.63,4.41s-1.04,2.66-1.86,3.84c-.82,1.18-1.83,2.22-3.03,3.15-1.2,.92-2.58,1.68-4.13,2.27,.75,.37,1.44,.83,2.09,1.38,.65,.55,1.21,1.22,1.7,2.01l10.21,16.7h-10.08c-1.87,0-3.21-.7-4.02-2.11l-7.97-13.93c-.35-.61-.76-1.05-1.24-1.32-.47-.26-1.14-.4-1.99-.4h-2.83Zm0-7.68h4.48c1.52,0,2.81-.19,3.87-.58,1.06-.38,1.94-.92,2.62-1.6,.68-.68,1.17-1.48,1.48-2.39,.31-.91,.46-1.89,.46-2.95,0-2.11-.69-3.76-2.06-4.94-1.37-1.19-3.5-1.78-6.37-1.78h-4.48v14.23Z"/>
    <path class="cls-35" d="M1070.74,511.62v8.57h-19.7v11.2h15.09v8.24h-15.09v11.43h19.7v8.56h-30.9v-48h30.9Z"/>
    <path class="cls-45" d="M1116.05,540.28c.41,.9,.8,1.82,1.17,2.77,.37-.97,.77-1.91,1.19-2.82,.42-.91,.85-1.8,1.28-2.65l12.32-24.27c.22-.42,.45-.74,.68-.97s.49-.4,.77-.51c.29-.11,.61-.17,.97-.17h9.77v47.96h-9.82v-27.61c0-1.34,.07-2.79,.2-4.35l-12.72,24.67c-.4,.77-.93,1.35-1.6,1.75-.67,.4-1.43,.59-2.29,.59h-1.52c-.86,0-1.62-.2-2.29-.59-.67-.4-1.2-.98-1.6-1.75l-12.78-24.71c.09,.77,.15,1.53,.2,2.29s.07,1.45,.07,2.09v27.61h-9.82v-47.96h9.77c.36,0,.69,.06,.97,.17,.29,.11,.54,.28,.77,.51s.46,.55,.68,.97l12.35,24.37c.44,.84,.86,1.7,1.27,2.61Z"/>
    <path class="cls-46" d="M1196.19,511.62v8.57h-19.7v11.2h15.09v8.24h-15.09v11.43h19.7v8.56h-30.9v-48h30.9Z"/>
    <path class="cls-48" d="M1222.77,511.68c.33,.04,.63,.13,.89,.25,.26,.12,.52,.29,.76,.51,.24,.22,.52,.52,.82,.89l22.8,28.82c-.09-.92-.15-1.82-.2-2.68-.04-.87-.07-1.68-.07-2.45v-25.4h9.82v48h-5.8c-.86,0-1.58-.13-2.17-.4s-1.16-.75-1.71-1.45l-22.63-28.59c.07,.84,.12,1.65,.16,2.45,.04,.8,.07,1.55,.07,2.26v25.73h-9.82v-48h5.86c.48,0,.89,.02,1.22,.07Z"/>
    <path class="cls-50" d="M1313.53,511.62v8.83h-13.51v39.17h-11.13v-39.17h-13.51v-8.83h38.15Z"/>
    <path class="cls-49" d="M1358.06,521.37c-.33,.53-.67,.92-1.04,1.19-.36,.26-.83,.4-1.4,.4-.5,0-1.05-.16-1.63-.48s-1.24-.68-1.98-1.07c-.74-.4-1.58-.75-2.52-1.07s-2.02-.48-3.23-.48c-2.09,0-3.64,.44-4.66,1.33-1.02,.89-1.53,2.09-1.53,3.61,0,.97,.31,1.77,.92,2.4,.61,.64,1.42,1.19,2.42,1.65,1,.46,2.14,.88,3.43,1.27,1.28,.38,2.6,.81,3.94,1.28,1.34,.47,2.65,1.03,3.94,1.66,1.28,.64,2.43,1.45,3.43,2.44,1,.99,1.81,2.19,2.42,3.61s.92,3.12,.92,5.12c0,2.22-.39,4.29-1.15,6.23-.77,1.93-1.88,3.62-3.34,5.06-1.46,1.44-3.26,2.57-5.4,3.39-2.14,.82-4.57,1.24-7.3,1.24-1.49,0-3.01-.15-4.56-.46-1.55-.31-3.05-.74-4.5-1.3-1.45-.56-2.81-1.22-4.09-1.99-1.27-.77-2.38-1.63-3.33-2.57l3.29-5.21c.24-.4,.58-.71,1.02-.96,.44-.24,.91-.36,1.42-.36,.66,0,1.32,.21,1.99,.63,.67,.42,1.43,.88,2.27,1.38,.85,.51,1.82,.97,2.92,1.38,1.1,.42,2.39,.63,3.89,.63,2.02,0,3.59-.44,4.71-1.33,1.12-.89,1.68-2.3,1.68-4.23,0-1.12-.31-2.03-.92-2.73-.61-.7-1.42-1.28-2.42-1.75-1-.46-2.14-.87-3.41-1.22-1.27-.35-2.58-.74-3.92-1.17-1.34-.43-2.65-.96-3.92-1.58-1.27-.63-2.41-1.45-3.41-2.47-1-1.02-1.81-2.29-2.42-3.82-.61-1.53-.92-3.41-.92-5.65,0-1.8,.36-3.56,1.09-5.27,.73-1.71,1.79-3.24,3.2-4.58,1.41-1.34,3.13-2.41,5.17-3.21,2.04-.8,4.38-1.2,7.02-1.2,1.47,0,2.9,.12,4.3,.35,1.39,.23,2.72,.57,3.97,1.02,1.25,.45,2.42,.99,3.51,1.61,1.09,.63,2.06,1.33,2.91,2.13l-2.77,5.17Z"/>
    <path class="cls-47" d="M1378.49,553.82c0-.7,.13-1.36,.4-1.96,.26-.6,.64-1.13,1.14-1.58,.49-.45,1.08-.81,1.75-1.07,.67-.26,1.42-.4,2.26-.4,.99,0,1.85,.17,2.57,.51,.72,.34,1.33,.8,1.81,1.38,.48,.58,.84,1.25,1.07,2.01,.23,.76,.35,1.55,.35,2.39,0,1.1-.18,2.27-.53,3.51s-.87,2.49-1.56,3.74c-.69,1.25-1.55,2.48-2.59,3.69-1.03,1.21-2.22,2.31-3.56,3.29l-1.78-1.58c-.24-.24-.42-.47-.54-.68-.12-.21-.18-.47-.18-.77,0-.22,.08-.46,.23-.71s.34-.48,.56-.68c.26-.26,.57-.58,.92-.96,.35-.37,.7-.79,1.05-1.25,.35-.46,.68-.97,.97-1.52,.3-.55,.52-1.13,.68-1.75-.77-.07-1.46-.25-2.08-.56-.61-.31-1.14-.71-1.56-1.22-.43-.5-.76-1.08-1-1.73-.24-.65-.36-1.36-.36-2.12Z"/>
    <path class="cls-41" d="M1461.57,521.37c-.33,.53-.67,.92-1.04,1.19-.36,.26-.83,.4-1.4,.4-.5,0-1.05-.16-1.63-.48s-1.24-.68-1.98-1.07c-.74-.4-1.58-.75-2.52-1.07-.94-.32-2.02-.48-3.23-.48-2.09,0-3.64,.44-4.66,1.33-1.02,.89-1.53,2.09-1.53,3.61,0,.97,.31,1.77,.92,2.4,.61,.64,1.42,1.19,2.42,1.65,1,.46,2.14,.88,3.43,1.27,1.28,.38,2.6,.81,3.94,1.28,1.34,.47,2.65,1.03,3.94,1.66,1.28,.64,2.43,1.45,3.43,2.44,1,.99,1.81,2.19,2.42,3.61s.92,3.12,.92,5.12c0,2.22-.39,4.29-1.15,6.23-.77,1.93-1.88,3.62-3.34,5.06-1.46,1.44-3.26,2.57-5.4,3.39-2.14,.82-4.57,1.24-7.3,1.24-1.49,0-3.01-.15-4.56-.46-1.55-.31-3.05-.74-4.5-1.3-1.45-.56-2.81-1.22-4.09-1.99-1.27-.77-2.38-1.63-3.33-2.57l3.29-5.21c.24-.4,.58-.71,1.02-.96,.44-.24,.91-.36,1.42-.36,.66,0,1.32,.21,1.99,.63,.67,.42,1.43,.88,2.27,1.38,.85,.51,1.82,.97,2.92,1.38,1.1,.42,2.39,.63,3.89,.63,2.02,0,3.59-.44,4.71-1.33,1.12-.89,1.68-2.3,1.68-4.23,0-1.12-.31-2.03-.92-2.73-.61-.7-1.42-1.28-2.42-1.75-1-.46-2.14-.87-3.41-1.22-1.27-.35-2.58-.74-3.92-1.17-1.34-.43-2.65-.96-3.92-1.58-1.27-.63-2.41-1.45-3.41-2.47-1-1.02-1.81-2.29-2.42-3.82-.61-1.53-.92-3.41-.92-5.65,0-1.8,.36-3.56,1.09-5.27,.73-1.71,1.79-3.24,3.2-4.58,1.41-1.34,3.13-2.41,5.17-3.21,2.04-.8,4.38-1.2,7.02-1.2,1.47,0,2.9,.12,4.3,.35,1.39,.23,2.72,.57,3.97,1.02,1.25,.45,2.42,.99,3.51,1.61,1.09,.63,2.06,1.33,2.91,2.13l-2.77,5.17Z"/>
    <path class="cls-39" d="M1503.67,550.82c1.49,0,2.83-.25,4-.74,1.17-.49,2.17-1.2,2.98-2.13,.81-.92,1.43-2.05,1.86-3.38,.43-1.33,.64-2.84,.64-4.53v-28.43h11.13v28.43c0,2.94-.48,5.64-1.43,8.1-.95,2.46-2.32,4.58-4.1,6.36-1.78,1.78-3.94,3.16-6.49,4.15-2.55,.99-5.41,1.48-8.6,1.48s-6.08-.49-8.63-1.48c-2.55-.99-4.71-2.37-6.49-4.15-1.78-1.78-3.14-3.9-4.08-6.36-.95-2.46-1.42-5.16-1.42-8.1v-28.43h11.13v28.4c0,1.69,.21,3.2,.64,4.53,.43,1.33,1.05,2.46,1.86,3.39,.81,.93,1.81,1.65,2.98,2.14,1.17,.49,2.51,.74,4,.74Z"/>
    <path class="cls-43" d="M1555.85,543.57v16.04h-11.14v-48h16.93c3.38,0,6.29,.4,8.71,1.2,2.43,.8,4.43,1.91,6,3.31,1.57,1.41,2.73,3.06,3.47,4.97,.75,1.91,1.12,3.98,1.12,6.19,0,2.39-.38,4.59-1.15,6.59-.77,2-1.94,3.71-3.52,5.14-1.58,1.43-3.59,2.54-6.01,3.34-2.43,.8-5.3,1.2-8.61,1.2h-5.8Zm0-8.4h5.8c2.9,0,4.98-.69,6.26-2.08,1.27-1.38,1.91-3.32,1.91-5.8,0-1.1-.16-2.1-.49-3-.33-.9-.83-1.67-1.5-2.32-.67-.65-1.52-1.15-2.54-1.5-1.02-.35-2.24-.53-3.64-.53h-5.8v15.22Z"/>
    <path class="cls-40" d="M1630.83,511.62v8.57h-19.7v11.2h15.09v8.24h-15.09v11.43h19.7v8.56h-30.9v-48h30.9Z"/>
    <path class="cls-38" d="M1661.47,541.86v17.76h-11.14v-48h15.62c3.47,0,6.43,.36,8.88,1.07,2.45,.71,4.45,1.71,6,2.98,1.55,1.27,2.67,2.78,3.38,4.51,.7,1.73,1.05,3.62,1.05,5.67,0,1.56-.21,3.03-.63,4.41s-1.04,2.66-1.86,3.84c-.82,1.18-1.83,2.22-3.03,3.15-1.2,.92-2.58,1.68-4.13,2.27,.75,.37,1.44,.83,2.09,1.38,.65,.55,1.21,1.22,1.7,2.01l10.21,16.7h-10.08c-1.87,0-3.21-.7-4.02-2.11l-7.97-13.93c-.35-.61-.76-1.05-1.24-1.32-.47-.26-1.14-.4-1.99-.4h-2.83Zm0-7.68h4.48c1.52,0,2.81-.19,3.87-.58,1.06-.38,1.94-.92,2.62-1.6,.68-.68,1.17-1.48,1.48-2.39,.31-.91,.46-1.89,.46-2.95,0-2.11-.69-3.76-2.06-4.94-1.37-1.19-3.5-1.78-6.37-1.78h-4.48v14.23Z"/>
    <path class="cls-42" d="M1719.51,559.62h-11.2v-48h11.2v48Z"/>
    <path class="cls-13" d="M1788.95,535.6c0,3.47-.6,6.7-1.8,9.69-1.2,2.99-2.88,5.58-5.06,7.79-2.17,2.21-4.79,3.94-7.86,5.19-3.06,1.25-6.46,1.88-10.2,1.88s-7.14-.63-10.21-1.88c-3.07-1.25-5.7-2.98-7.89-5.19-2.19-2.21-3.88-4.8-5.07-7.79-1.2-2.99-1.8-6.21-1.8-9.69s.6-6.7,1.8-9.69c1.2-2.99,2.89-5.58,5.07-7.77,2.18-2.2,4.81-3.92,7.89-5.17,3.07-1.25,6.48-1.88,10.21-1.88s7.13,.63,10.2,1.89c3.06,1.26,5.68,2.99,7.86,5.19,2.17,2.2,3.86,4.79,5.06,7.77,1.2,2.99,1.8,6.2,1.8,9.65Zm-11.4,0c0-2.37-.31-4.51-.92-6.41-.61-1.9-1.5-3.51-2.65-4.83-1.15-1.32-2.56-2.33-4.23-3.03-1.67-.7-3.57-1.05-5.7-1.05s-4.07,.35-5.75,1.05c-1.68,.7-3.1,1.71-4.25,3.03-1.15,1.32-2.04,2.93-2.65,4.83-.61,1.9-.92,4.04-.92,6.41s.31,4.54,.92,6.44c.61,1.9,1.5,3.51,2.65,4.83,1.15,1.32,2.57,2.32,4.25,3.01,1.68,.69,3.6,1.04,5.75,1.04s4.03-.35,5.7-1.04c1.67-.69,3.08-1.7,4.23-3.01,1.15-1.32,2.04-2.93,2.65-4.83,.61-1.9,.92-4.05,.92-6.44Z"/>
    <path class="cls-12" d="M1818.6,541.86v17.76h-11.14v-48h15.62c3.47,0,6.43,.36,8.88,1.07,2.45,.71,4.45,1.71,6,2.98,1.55,1.27,2.67,2.78,3.38,4.51,.7,1.73,1.05,3.62,1.05,5.67,0,1.56-.21,3.03-.63,4.41s-1.04,2.66-1.86,3.84c-.82,1.18-1.83,2.22-3.03,3.15-1.2,.92-2.58,1.68-4.13,2.27,.75,.37,1.44,.83,2.09,1.38,.65,.55,1.21,1.22,1.7,2.01l10.21,16.7h-10.08c-1.87,0-3.21-.7-4.02-2.11l-7.97-13.93c-.35-.61-.76-1.05-1.24-1.32-.47-.26-1.14-.4-1.99-.4h-2.83Zm0-7.68h4.48c1.52,0,2.81-.19,3.87-.58,1.06-.38,1.94-.92,2.62-1.6,.68-.68,1.17-1.48,1.48-2.39,.31-.91,.46-1.89,.46-2.95,0-2.11-.69-3.76-2.06-4.94-1.37-1.19-3.5-1.78-6.37-1.78h-4.48v14.23Z"/>
    <path class="cls-15" d="M1901.49,541.86v17.76h-11.14v-48h15.62c3.47,0,6.43,.36,8.88,1.07,2.45,.71,4.45,1.71,6,2.98,1.55,1.27,2.67,2.78,3.38,4.51,.7,1.73,1.05,3.62,1.05,5.67,0,1.56-.21,3.03-.63,4.41s-1.04,2.66-1.86,3.84c-.82,1.18-1.83,2.22-3.03,3.15-1.2,.92-2.58,1.68-4.13,2.27,.75,.37,1.44,.83,2.09,1.38,.65,.55,1.21,1.22,1.7,2.01l10.21,16.7h-10.08c-1.87,0-3.21-.7-4.02-2.11l-7.97-13.93c-.35-.61-.76-1.05-1.24-1.32-.47-.26-1.14-.4-1.99-.4h-2.83Zm0-7.68h4.48c1.52,0,2.81-.19,3.87-.58,1.06-.38,1.94-.92,2.62-1.6,.68-.68,1.17-1.48,1.48-2.39,.31-.91,.46-1.89,.46-2.95,0-2.11-.69-3.76-2.06-4.94-1.37-1.19-3.5-1.78-6.37-1.78h-4.48v14.23Z"/>
    <path class="cls-14" d="M1978.24,511.62v8.57h-19.7v11.2h15.09v8.24h-15.09v11.43h19.7v8.56h-30.9v-48h30.9Z"/>
    <path class="cls-18" d="M2024.49,521.37c-.33,.53-.67,.92-1.04,1.19-.36,.26-.83,.4-1.4,.4-.5,0-1.05-.16-1.63-.48s-1.24-.68-1.98-1.07c-.74-.4-1.58-.75-2.52-1.07s-2.02-.48-3.23-.48c-2.09,0-3.64,.44-4.66,1.33-1.02,.89-1.53,2.09-1.53,3.61,0,.97,.31,1.77,.92,2.4,.61,.64,1.42,1.19,2.42,1.65,1,.46,2.14,.88,3.43,1.27,1.28,.38,2.6,.81,3.94,1.28,1.34,.47,2.65,1.03,3.94,1.66,1.28,.64,2.43,1.45,3.43,2.44,1,.99,1.81,2.19,2.42,3.61s.92,3.12,.92,5.12c0,2.22-.39,4.29-1.15,6.23-.77,1.93-1.88,3.62-3.34,5.06-1.46,1.44-3.26,2.57-5.4,3.39-2.14,.82-4.57,1.24-7.3,1.24-1.49,0-3.01-.15-4.56-.46-1.55-.31-3.05-.74-4.5-1.3-1.45-.56-2.81-1.22-4.09-1.99-1.27-.77-2.38-1.63-3.33-2.57l3.29-5.21c.24-.4,.58-.71,1.02-.96,.44-.24,.91-.36,1.42-.36,.66,0,1.32,.21,1.99,.63,.67,.42,1.43,.88,2.27,1.38,.85,.51,1.82,.97,2.92,1.38,1.1,.42,2.39,.63,3.89,.63,2.02,0,3.59-.44,4.71-1.33,1.12-.89,1.68-2.3,1.68-4.23,0-1.12-.31-2.03-.92-2.73-.61-.7-1.42-1.28-2.42-1.75-1-.46-2.14-.87-3.41-1.22-1.27-.35-2.58-.74-3.92-1.17-1.34-.43-2.65-.96-3.92-1.58-1.27-.63-2.41-1.45-3.41-2.47-1-1.02-1.81-2.29-2.42-3.82-.61-1.53-.92-3.41-.92-5.65,0-1.8,.36-3.56,1.09-5.27,.73-1.71,1.79-3.24,3.2-4.58,1.41-1.34,3.13-2.41,5.17-3.21,2.04-.8,4.38-1.2,7.02-1.2,1.47,0,2.9,.12,4.3,.35,1.39,.23,2.72,.57,3.97,1.02,1.25,.45,2.42,.99,3.51,1.61,1.09,.63,2.06,1.33,2.91,2.13l-2.77,5.17Z"/>
    <path class="cls-16" d="M2066.59,550.82c1.49,0,2.83-.25,4-.74,1.17-.49,2.17-1.2,2.98-2.13,.81-.92,1.43-2.05,1.86-3.38,.43-1.33,.64-2.84,.64-4.53v-28.43h11.13v28.43c0,2.94-.48,5.64-1.43,8.1-.95,2.46-2.32,4.58-4.1,6.36-1.78,1.78-3.94,3.16-6.49,4.15-2.55,.99-5.41,1.48-8.6,1.48s-6.08-.49-8.63-1.48c-2.55-.99-4.71-2.37-6.49-4.15-1.78-1.78-3.14-3.9-4.08-6.36-.95-2.46-1.42-5.16-1.42-8.1v-28.43h11.13v28.4c0,1.69,.21,3.2,.64,4.53,.43,1.33,1.05,2.46,1.86,3.39,.81,.93,1.81,1.65,2.98,2.14,1.17,.49,2.51,.74,4,.74Z"/>
    <path class="cls-17" d="M2118.78,550.72h17.79v8.89h-28.92v-48h11.14v39.1Z"/>
    <path class="cls-19" d="M2183.94,511.62v8.83h-13.51v39.17h-11.13v-39.17h-13.51v-8.83h38.15Z"/>
    <path class="cls-20" d="M2228.47,521.37c-.33,.53-.67,.92-1.04,1.19-.36,.26-.83,.4-1.4,.4-.5,0-1.05-.16-1.63-.48s-1.24-.68-1.98-1.07c-.74-.4-1.58-.75-2.52-1.07s-2.02-.48-3.23-.48c-2.09,0-3.64,.44-4.66,1.33-1.02,.89-1.53,2.09-1.53,3.61,0,.97,.31,1.77,.92,2.4,.61,.64,1.42,1.19,2.42,1.65,1,.46,2.14,.88,3.43,1.27,1.28,.38,2.6,.81,3.94,1.28,1.34,.47,2.65,1.03,3.94,1.66,1.28,.64,2.43,1.45,3.43,2.44,1,.99,1.81,2.19,2.42,3.61,.61,1.42,.92,3.12,.92,5.12,0,2.22-.39,4.29-1.15,6.23-.77,1.93-1.88,3.62-3.34,5.06-1.46,1.44-3.26,2.57-5.4,3.39-2.14,.82-4.57,1.24-7.3,1.24-1.49,0-3.01-.15-4.56-.46-1.55-.31-3.05-.74-4.5-1.3-1.45-.56-2.81-1.22-4.09-1.99-1.27-.77-2.38-1.63-3.33-2.57l3.29-5.21c.24-.4,.58-.71,1.02-.96,.44-.24,.91-.36,1.42-.36,.66,0,1.32,.21,1.99,.63,.67,.42,1.43,.88,2.27,1.38,.85,.51,1.82,.97,2.92,1.38,1.1,.42,2.39,.63,3.89,.63,2.02,0,3.59-.44,4.71-1.33,1.12-.89,1.68-2.3,1.68-4.23,0-1.12-.31-2.03-.92-2.73-.61-.7-1.42-1.28-2.42-1.75-1-.46-2.14-.87-3.41-1.22-1.27-.35-2.58-.74-3.92-1.17-1.34-.43-2.65-.96-3.92-1.58-1.27-.63-2.41-1.45-3.41-2.47-1-1.02-1.81-2.29-2.42-3.82-.61-1.53-.92-3.41-.92-5.65,0-1.8,.36-3.56,1.09-5.27,.73-1.71,1.79-3.24,3.2-4.58,1.41-1.34,3.13-2.41,5.17-3.21,2.04-.8,4.38-1.2,7.02-1.2,1.47,0,2.9,.12,4.3,.35,1.39,.23,2.72,.57,3.97,1.02,1.25,.45,2.42,.99,3.51,1.61,1.09,.63,2.06,1.33,2.91,2.13l-2.77,5.17Z"/>
  </g>
</svg>