<?xml version="1.0" encoding="UTF-8"?>
<svg id="Layer_1" data-name="Layer 1" xmlns="http://www.w3.org/2000/svg" xmlns:xlink="http://www.w3.org/1999/xlink" viewBox="0 0 2345 735">
  <defs>
    <style>
      .cls-1 {
        fill: url(#linear-gradient);
      }

      .cls-2, .cls-3 {
        fill: #fff;
      }

      .cls-4 {
        fill: url(#linear-gradient-8);
      }

      .cls-5 {
        fill: url(#linear-gradient-9);
      }

      .cls-6 {
        fill: url(#linear-gradient-3);
      }

      .cls-7 {
        fill: url(#linear-gradient-4);
      }

      .cls-8 {
        fill: url(#linear-gradient-2);
      }

      .cls-9 {
        fill: url(#linear-gradient-6);
      }

      .cls-10 {
        fill: url(#linear-gradient-7);
      }

      .cls-11 {
        fill: url(#linear-gradient-5);
      }

      .cls-12 {
        fill: url(#linear-gradient-12);
      }

      .cls-13 {
        fill: url(#linear-gradient-10);
      }

      .cls-14 {
        fill: url(#linear-gradient-11);
      }

      .cls-3 {
        stroke: #fff;
        stroke-linecap: round;
        stroke-linejoin: round;
        stroke-width: 3px;
      }
    </style>
    <linearGradient id="linear-gradient" x1="2253.2" y1="407.63" x2="610.88" y2="407.63" gradientUnits="userSpaceOnUse">
      <stop offset="0" stop-color="#0048ff"/>
      <stop offset="1" stop-color="#55de60"/>
    </linearGradient>
    <linearGradient id="linear-gradient-2" x1="2253.2" y1="408.85" x2="610.88" y2="408.85" xlink:href="#linear-gradient"/>
    <linearGradient id="linear-gradient-3" y1="408.83" x2="610.88" y2="408.83" xlink:href="#linear-gradient"/>
    <linearGradient id="linear-gradient-4" x1="2253.2" y1="408.83" x2="610.88" y2="408.83" xlink:href="#linear-gradient"/>
    <linearGradient id="linear-gradient-5" x1="2253.2" y1="408.83" x2="610.88" y2="408.83" xlink:href="#linear-gradient"/>
    <linearGradient id="linear-gradient-6" x1="2253.2" y1="408.83" x2="610.88" y2="408.83" xlink:href="#linear-gradient"/>
    <linearGradient id="linear-gradient-7" x1="2253.2" y1="408.83" x2="610.88" y2="408.83" xlink:href="#linear-gradient"/>
    <linearGradient id="linear-gradient-8" x1="2253.2" y1="408.83" x2="610.88" y2="408.83" xlink:href="#linear-gradient"/>
    <linearGradient id="linear-gradient-9" x1="2253.2" y1="408.83" x2="610.88" y2="408.83" xlink:href="#linear-gradient"/>
    <linearGradient id="linear-gradient-10" x1="143.07" y1="365.6" x2="607.94" y2="365.6" xlink:href="#linear-gradient"/>
    <linearGradient id="linear-gradient-11" x1="143.07" y1="365.45" x2="607.94" y2="365.45" xlink:href="#linear-gradient"/>
    <linearGradient id="linear-gradient-12" x1="143.07" y1="495.06" x2="607.94" y2="495.06" xlink:href="#linear-gradient"/>
  </defs>
  <rect x=".5" y=".5" width="2344" height="735"/>
  <g>
    <g>
      <path class="cls-1" d="M594.14,386.79v41.68h126.04v-41.68h-126.04Z"/>
      <g>
        <path class="cls-8" d="M1014.44,292.77l-44.06,171.69-48.62-171.69h-39.64l-48.42,172.13-44.66-172.13h-47.87l61.47,232.16h55.18l43.67-154.04,43.98,154.04h52.07l61-232.16h-44.09Z"/>
        <path class="cls-6" d="M1291.99,437.34c13.49-6.19,24.32-15.41,32.5-27.69,8.18-12.27,12.27-25.59,12.27-39.97,0-21.22-7.52-39.35-22.55-54.39-15.04-15.03-33.28-22.55-54.72-22.55h-92.86v232.16h45.77v-80.59h34.66l46.93,80.59h49.42l-51.4-87.56Zm-10.28-43.28c-6.19,6.74-13.6,10.12-22.22,10.12h-47.09v-68.65h47.09c8.62,0,16.03,3.31,22.22,9.95,6.19,6.63,9.28,14.71,9.28,24.21s-3.1,17.64-9.28,24.38Z"/>
        <path class="cls-7" d="M1416.03,481.13v-52.07h87.89v-43.11h-87.89v-49.42h96.18v-43.78h-141.95v232.16h143.61v-43.78h-97.84Z"/>
        <path class="cls-11" d="M1591.81,481.13v-188.38h-45.77v232.16h134.32v-43.78h-88.55Z"/>
        <path class="cls-9" d="M1087.1,292.69v232.29h45.79v-232.29h-45.79Z"/>
        <path class="cls-10" d="M1752,481.13v-52.07h87.89v-43.11h-87.89v-49.42h96.18v-43.78h-141.95v232.16h143.61v-43.78h-97.84Z"/>
        <path class="cls-4" d="M2043.02,441.16c-1.66-5.64-3.65-10.44-5.97-14.43-2.32-3.98-5.7-7.85-10.12-11.61-4.43-3.76-8.35-6.74-11.78-8.95-3.43-2.21-8.29-4.59-14.59-7.13-6.3-2.54-11.28-4.42-14.93-5.64-3.65-1.21-9.01-2.93-16.09-5.14-17.25-5.31-28.91-10.22-34.99-14.76-6.08-4.53-9.12-10.45-9.12-17.74,0-6.85,2.7-12.44,8.12-16.75,5.41-4.31,12.88-6.47,22.39-6.47,20.34,0,35.15,9.95,44.44,29.85l38.47-22.22c-7.96-16.36-19.07-29.13-33.33-38.3-14.26-9.17-30.79-13.77-49.58-13.77-21.01,0-38.97,6.25-53.89,18.74-14.92,12.49-22.39,29.24-22.39,50.24,0,10.62,1.88,19.9,5.64,27.86,3.76,7.96,9.23,14.54,16.42,19.73,7.18,5.2,14.37,9.34,21.56,12.44,7.18,3.1,15.97,6.19,26.37,9.28,18.79,5.31,31.84,10.23,39.14,14.76,7.3,4.54,10.94,10.89,10.94,19.07,0,7.08-2.98,12.93-8.95,17.58-5.97,4.64-15.37,6.97-28.19,6.97-26.53,0-44.33-11.83-53.4-35.49l-39.13,22.88c6.41,17.69,17.46,31.68,33.16,41.96,15.7,10.28,35.04,15.42,58.04,15.42,24.98,0,45.27-6.3,60.86-18.9,15.59-12.6,23.38-29.63,23.38-51.08,0-6.63-.83-12.77-2.49-18.41Z"/>
        <path class="cls-5" d="M2229.41,441.16c-1.66-5.64-3.65-10.44-5.97-14.43-2.32-3.98-5.69-7.85-10.12-11.61-4.43-3.76-8.35-6.74-11.78-8.95-3.43-2.21-8.29-4.59-14.59-7.13-6.3-2.54-11.28-4.42-14.93-5.64-3.65-1.21-9.01-2.93-16.09-5.14-17.25-5.31-28.91-10.22-34.99-14.76-6.08-4.53-9.12-10.45-9.12-17.74,0-6.85,2.71-12.44,8.13-16.75,5.41-4.31,12.88-6.47,22.38-6.47,20.34,0,35.16,9.95,44.44,29.85l38.47-22.22c-7.96-16.36-19.07-29.13-33.33-38.3-14.26-9.17-30.79-13.77-49.58-13.77-21.01,0-38.97,6.25-53.89,18.74-14.92,12.49-22.38,29.24-22.38,50.24,0,10.62,1.88,19.9,5.64,27.86,3.76,7.96,9.23,14.54,16.41,19.73,7.19,5.2,14.37,9.34,21.56,12.44,7.18,3.1,15.97,6.19,26.37,9.28,18.79,5.31,31.84,10.23,39.14,14.76,7.3,4.54,10.94,10.89,10.94,19.07,0,7.08-2.98,12.93-8.95,17.58-5.97,4.64-15.37,6.97-28.19,6.97-26.53,0-44.33-11.83-53.39-35.49l-39.14,22.88c6.41,17.69,17.47,31.68,33.17,41.96,15.7,10.28,35.04,15.42,58.04,15.42,24.99,0,45.27-6.3,60.86-18.9,15.59-12.6,23.38-29.63,23.38-51.08,0-6.63-.83-12.77-2.49-18.41Z"/>
      </g>
    </g>
    <path class="cls-13" d="M506.76,525.45h-73.91l-.12-.12-22.63-22.64-34.78-34.77-.04-.05-1.25-1.24-.17-.17-19.39-19.39-78.28,78.27-.12,.12h-73.89l115.34-115.34-1.52-1.52L119.72,212.32l-.29-.24-6.33-6.33h73.96l167.4,167.41,68.15-68.15,28.52-28.51,5.21-5.21,36.94,36.94s-.16,.05-.44,.13l.16,.16-33.44,33.43-60.28,60.28-7.88,7.87,19.15,19.14,.41,.42,1.25,1.25,94.42,94.41,.12,.12Z"/>
    <g>
      <polygon class="cls-14" points="620.1 525.33 504.52 409.73 599.51 314.75 544.14 259.38 543.58 258.83 490.2 205.45 327.48 205.45 327.48 328.46 354.46 355.43 379.06 330.83 379.06 259.67 469.96 259.67 506.91 296.62 526.45 316.16 469.22 373.41 457.53 361.72 421.06 398.19 434.01 411.14 470.02 444.75 550.72 525.45 620.22 525.45 620.1 525.33"/>
      <polygon class="cls-12" points="327.48 491.76 327.48 525.33 379.06 525.33 379.06 489.39 354.46 464.79 327.48 491.76"/>
    </g>
    <g>
      <rect class="cls-3" x="1555.02" y="313.41" width="17.27" height="1.45"/>
      <rect class="cls-3" x="1555.02" y="303.2" width="22.82" height="1.45"/>
      <rect class="cls-3" x="1555.02" y="333.76" width="17.27" height="1.45"/>
      <rect class="cls-3" x="1555.02" y="323.58" width="22.82" height="1.45"/>
      <rect class="cls-3" x="1555.02" y="353.76" width="17.27" height="1.45"/>
      <rect class="cls-3" x="1555.02" y="343.55" width="22.82" height="1.45"/>
      <rect class="cls-3" x="1555.02" y="374.11" width="17.27" height="1.45"/>
      <rect class="cls-3" x="1555.02" y="363.94" width="22.82" height="1.45"/>
      <rect class="cls-3" x="1555.02" y="394.47" width="17.27" height="1.45"/>
      <rect class="cls-3" x="1555.02" y="384.27" width="22.82" height="1.45"/>
      <rect class="cls-3" x="1555.02" y="414.83" width="17.27" height="1.45"/>
      <rect class="cls-3" x="1555.02" y="404.65" width="22.82" height="1.45"/>
      <rect class="cls-3" x="1555.02" y="434.82" width="17.27" height="1.45"/>
      <rect class="cls-3" x="1555.02" y="424.62" width="22.82" height="1.45"/>
      <rect class="cls-3" x="1555.02" y="455.18" width="17.27" height="1.45"/>
      <rect class="cls-3" x="1555.02" y="445" width="22.82" height="1.45"/>
      <rect class="cls-3" x="1555.02" y="475.54" width="17.27" height="1.45"/>
      <rect class="cls-3" x="1555.02" y="465.33" width="22.82" height="1.45"/>
    </g>
    <g>
      <rect class="cls-3" x="1601.38" y="499.59" width="1.45" height="17.27"/>
      <rect class="cls-3" x="1591.17" y="494.04" width="1.45" height="22.82"/>
      <rect class="cls-3" x="1621.74" y="499.59" width="1.45" height="17.27"/>
      <rect class="cls-3" x="1611.56" y="494.04" width="1.45" height="22.82"/>
      <rect class="cls-3" x="1641.73" y="499.59" width="1.45" height="17.27"/>
      <rect class="cls-3" x="1631.53" y="494.04" width="1.45" height="22.82"/>
      <rect class="cls-3" x="1662.09" y="499.59" width="1.45" height="17.27"/>
      <rect class="cls-3" x="1651.91" y="494.04" width="1.45" height="22.82"/>
      <rect class="cls-3" x="1672.24" y="494.04" width="1.45" height="22.82"/>
    </g>
    <rect class="cls-2" x="1555.02" y="494.45" width="22" height="22"/>
  </g>
</svg>